<svg xmlns="http://www.w3.org/2000/svg" width="1024" height="1024" viewBox="0 0 108 108"><rect x="2" y="2" width="104" height="104" rx="23" fill="#080f1d"/><path fill="#1A2C46" d="M29,27H74L81,34V49H29Z"/><path fill="#263F5E" d="M29,59H81V74L74,81H29Z"/><path fill="#BCD9F6" d="M29,27H74L81,34H32V46H29Z"/><path fill="#6684A8" d="M29,59H32V78H74L81,71V74L74,81H29Z"/><path fill="#66DCFF" d="M34,42H48L58,32H70L54,48H34Z"/><path fill="#537BFF" d="M74,63H60L50,75H38L54,59H74Z"/><path fill="#DDF9FF" d="M49,53H61V55H49Z"/></svg>